<svg height="512pt" viewBox="0 0 512 512" width="512pt" xmlns="http://www.w3.org/2000/svg" xmlns:xlink="http://www.w3.org/1999/xlink">
<linearGradient id="a" gradientTransform="matrix(1 0 0 -1 0 -16582)" gradientUnits="userSpaceOnUse" x1="0" x2="512" y1="-16838" y2="-16838">
<stop offset="0" stop-color="#00f38d"/>
<stop offset="1" stop-color="#009eff"/>
</linearGradient>
<path d="m512 256c0 141.386719-114.613281 256-256 256s-256-114.613281-256-256 114.613281-256 256-256 256 114.613281 256 256zm0 0" fill="url(#a)"/>
<g fill="#fff">
<path d="m257 56c-110.28125 0-200 89.71875-200 200s89.71875 200 200 200 200-89.71875 200-200-89.71875-200-200-200zm15 369.332031v-29.121093h-30v29.121093c-81.792969-7.1875-147.144531-72.539062-154.332031-154.332031h29.121093v-30h-29.121093c7.1875-81.792969 72.539062-147.144531 154.332031-154.332031v29.121093h30v-29.121093c81.792969 7.1875 147.144531 72.539062 154.332031 154.332031h-29.121093v30h29.121093c-7.1875 81.792969-72.539062 147.144531-154.332031 154.332031zm0 0"/>
<path d="m154.859375 358.140625 133.191406-56.851563c6.363281-2.714843 10.308594-4.398437 12.503907-10.179687l58.585937-137.25-143.171875 61.109375zm77.625-105.441406 27.820313 27.816406c-13.824219 5.902344-32.445313 13.847656-48.535157 20.71875zm49.03125 6.601562-27.816406-27.816406 48.53125-20.714844zm0 0"/>
</g>
</svg>
